<?xml version="1.0" standalone="no"?>
<!DOCTYPE svg PUBLIC "-//W3C//DTD SVG 20010904//EN"
 "http://www.w3.org/TR/2001/REC-SVG-20010904/DTD/svg10.dtd">
<svg version="1.0" xmlns="http://www.w3.org/2000/svg"
 width="260.000000pt" height="260.000000pt" viewBox="0 0 260.000000 260.000000"
 preserveAspectRatio="xMidYMid meet">
<metadata>
Created by potrace 1.14, written by Peter Selinger 2001-2017
</metadata>
<g transform="translate(0.000000,260.000000) scale(0.100000,-0.100000)"
fill="#000000" stroke="none">
<path d="M915 2033 c-62 -11 -162 -37 -172 -45 -7 -6 -13 -8 -13 -4 0 4 -15
-1 -32 -11 -18 -9 -38 -18 -43 -19 -34 -6 -168 -99 -224 -155 -162 -161 -166
-316 -13 -468 69 -68 104 -95 316 -241 136 -94 151 -195 42 -294 -84 -77 -282
-115 -411 -79 -27 8 -54 15 -60 16 -28 7 -78 61 -76 82 4 35 78 115 107 115 8
0 14 4 14 8 0 4 16 14 36 21 61 22 74 88 27 141 -11 12 -20 12 -58 2 -183 -49
-333 -195 -339 -332 -6 -109 73 -189 232 -234 28 -8 52 -12 52 -9 0 3 6 1 12
-4 13 -10 296 -11 333 -1 100 28 148 46 205 77 64 35 163 124 188 169 29 53
38 72 49 112 10 33 5 128 -8 151 -7 13 -13 27 -14 31 -1 18 -99 110 -190 178
-55 41 -102 78 -103 83 -2 4 -8 5 -13 1 -5 -3 -9 -1 -9 5 0 5 -16 19 -35 31
-20 12 -41 27 -48 33 -6 7 -30 25 -52 42 -98 73 -124 133 -87 202 59 110 381
247 486 207 27 -10 19 -57 -16 -93 -18 -18 -35 -32 -38 -30 -9 5 -51 -35 -66
-64 -25 -47 0 -126 41 -128 48 -4 68 2 110 31 120 83 176 177 169 287 -2 49
-23 104 -48 128 -41 41 -173 71 -251 58z"/>
<path d="M2117 2034 c-1 -1 -35 -4 -75 -8 -40 -3 -76 -7 -80 -10 -4 -2 -23 -7
-42 -10 -125 -19 -328 -104 -450 -187 -55 -37 -156 -129 -142 -129 4 0 3 -4
-3 -8 -20 -15 -36 -55 -37 -93 -1 -54 31 -80 92 -77 51 2 79 17 133 70 20 20
37 34 37 30 0 -4 4 -2 8 3 31 43 272 188 332 200 8 2 27 8 43 14 15 6 38 13
50 15 12 3 33 8 47 11 139 35 309 8 324 -50 18 -71 -85 -172 -269 -265 l-96
-48 3 41 c1 25 -3 42 -10 45 -7 2 -19 10 -26 18 -17 17 -50 18 -77 3 -22 -11
-63 -49 -53 -49 3 0 -6 -15 -20 -32 -13 -18 -50 -85 -82 -148 -32 -63 -62
-116 -66 -118 -5 -2 -8 -10 -8 -17 0 -12 -136 -283 -230 -460 l-43 -81 -51 -2
c-123 -5 -164 -33 -154 -103 4 -32 19 -46 75 -72 41 -18 69 -22 188 -23 77 -2
167 2 200 7 33 6 71 12 85 14 14 2 25 4 25 5 0 1 14 4 30 6 17 3 59 14 95 25
36 12 70 22 75 24 33 7 169 68 176 78 3 5 9 8 12 8 27 -2 173 106 228 167 61
70 90 133 94 208 8 133 -59 226 -217 303 -48 24 -94 44 -102 45 -33 5 -24 14
31 37 186 74 344 193 394 295 21 44 32 134 17 134 -5 0 -7 4 -4 8 15 24 -98
130 -146 138 -5 1 -9 2 -10 4 -20 15 -287 46 -301 34z m-147 -754 c0 -5 7 -10
16 -10 15 0 84 -33 112 -55 56 -42 112 -127 104 -156 -1 -4 -3 -23 -5 -42 -16
-142 -254 -285 -520 -314 l-48 -5 34 64 c19 34 54 101 78 148 24 47 48 88 52
91 5 3 8 9 7 13 0 3 24 57 53 119 30 61 57 122 61 135 5 15 15 22 32 22 13 0
24 -4 24 -10z"/>
</g>
</svg>
